<?xml version="1.0" encoding="UTF-8"?>
<svg xmlns="http://www.w3.org/2000/svg" xmlns:xlink="http://www.w3.org/1999/xlink" width="50px" height="50px" viewBox="0 0 50 50" version="1.1">
<g id="surface1">
<path style="fill:none;stroke-width:2;stroke-linecap:round;stroke-linejoin:round;stroke:rgb(100%,100%,100%);stroke-opacity:1;stroke-miterlimit:4;" d="M 8.000625 12 L 11.000625 15 L 15.999375 9 M 3.999375 16.8 L 3.999375 7.2 C 3.999375 6.080625 3.999375 5.52 4.21875 5.0925 C 4.41 4.715625 4.715625 4.41 5.0925 4.21875 C 5.52 3.999375 6.080625 3.999375 7.2 3.999375 L 16.8 3.999375 C 17.919375 3.999375 18.48 3.999375 18.9075 4.21875 C 19.284375 4.41 19.59 4.715625 19.783125 5.0925 C 20.000625 5.52 20.000625 6.07875 20.000625 7.19625 L 20.000625 16.80375 C 20.000625 17.92125 20.000625 18.48 19.783125 18.9075 C 19.59 19.284375 19.284375 19.59 18.9075 19.783125 C 18.48 20.000625 17.92125 20.000625 16.80375 20.000625 L 7.19625 20.000625 C 6.07875 20.000625 5.52 20.000625 5.0925 19.783125 C 4.715625 19.59 4.41 19.284375 4.21875 18.9075 C 3.999375 18.48 3.999375 17.919375 3.999375 16.8 Z M 3.999375 16.8 " transform="matrix(2.083333,0,0,2.083333,0,0)"/>
</g>
</svg>
