<svg width="24" height="24" viewBox="0 0 24 24" fill="none" xmlns="http://www.w3.org/2000/svg">
<path d="M16.1777 1.62305C17.0156 2.39063 18.0117 3.4336 19.4473 4.875C19.8691 5.29688 20.0332 5.99415 19.7109 6.74415C19.5645 7.11915 19.6523 7.54102 19.9395 7.82227C20.332 8.20313 20.959 8.20313 21.3574 7.82227C21.75 7.42969 22.5469 7.69336 22.7402 7.88672L23.4609 8.60742V8.60157C24.0527 9.1875 24.0527 10.1426 23.4609 10.7285L19.916 14.2793C19.3301 14.8652 18.375 14.8652 17.7891 14.2793L17.0977 13.4941C16.7051 13.1016 16.7051 12.4688 17.0977 12.0762C17.4902 11.6836 17.4902 11.0508 17.0977 10.6582C16.7051 10.2773 15.9785 10.2129 15.5801 10.5938L13.8223 12.252L10.1602 8.58399C10.1602 8.58399 11.4199 7.3418 11.7891 6.98438C12.7148 6.04688 11.8828 5.25586 11.4727 4.85743C10.4766 3.86719 8.41406 3.47461 7.00781 3.53321C6.56836 3.55079 6.16992 3.28125 6.01758 2.8711C5.87109 2.45508 6.01172 1.99219 6.36914 1.72852C10.5 -0.0117148 14.5488 -0.0117148 16.1777 1.62305ZM12.5039 13.6758L4.57031 21.5918C4.01367 22.1543 3.5625 22.5293 3.04102 22.5293C1.40625 22.4883 0.0820312 21.1641 0.0410156 19.5293C0.0410156 18.7324 0.234375 18.4395 0.796875 17.8828L8.74219 9.97266L12.5039 13.6758Z" fill="white"/>
</svg>
