<svg width="24" height="24" viewBox="0 0 24 24" fill="none" xmlns="http://www.w3.org/2000/svg">
<path d="M4.02539 14.666C1.66992 13.8516 0 11.6074 0 9C0 5.70117 2.70117 3 6 3H10.5C13.7988 3 16.5 5.70117 16.5 9C16.5 11.4609 15.0117 13.6055 12.8672 14.5195L11.6895 11.7598C12.7559 11.3027 13.5 10.2598 13.5 9C13.5 7.3125 12.1875 6 10.5 6H6C4.3125 6 3 7.3125 3 9C3 10.3359 3.83789 11.4316 5.00977 11.8359L4.02539 14.666Z" fill="white"/>
<path d="M12 21C8.70117 21 6 18.2988 6 15C6 12.5684 7.45312 10.4531 9.55078 9.51562L10.7754 12.2578C9.72656 12.7266 9 13.7578 9 15C9 16.6875 10.3125 18 12 18H16.5C18.1875 18 19.5 16.6875 19.5 15C19.5 13.6992 18.7031 12.627 17.584 12.1992L18.6562 9.39844C20.9121 10.2598 22.5 12.457 22.5 15C22.5 18.2988 19.7988 21 16.5 21H12Z" fill="white"/>
</svg>
