<?xml version="1.0" encoding="UTF-8" standalone="no"?>
<svg
   width="25"
   height="25"
   viewBox="0 0 25 25"
   fill="none"
   version="1.1"
   id="svg10691"
   sodipodi:docname="close.svg"
   xml:space="preserve"
   inkscape:version="1.2.2 (b0a8486541, 2022-12-01)"
   xmlns:inkscape="http://www.inkscape.org/namespaces/inkscape"
   xmlns:sodipodi="http://sodipodi.sourceforge.net/DTD/sodipodi-0.dtd"
   xmlns="http://www.w3.org/2000/svg"
   xmlns:svg="http://www.w3.org/2000/svg"><defs
     id="defs10695"><clipPath
       id="clip0_17_2"><rect
         width="16"
         height="16"
         fill="white"
         id="rect11909" /></clipPath></defs><sodipodi:namedview
     id="namedview10693"
     pagecolor="#505050"
     bordercolor="#eeeeee"
     borderopacity="1"
     inkscape:showpageshadow="0"
     inkscape:pageopacity="0"
     inkscape:pagecheckerboard="0"
     inkscape:deskcolor="#505050"
     showgrid="true"
     inkscape:zoom="21.439478"
     inkscape:cx="14.3427"
     inkscape:cy="15.088987"
     inkscape:window-width="1712"
     inkscape:window-height="1362"
     inkscape:window-x="840"
     inkscape:window-y="0"
     inkscape:window-maximized="0"
     inkscape:current-layer="svg10691"><inkscape:grid
       type="xygrid"
       id="grid118526"
       empspacing="4" /></sodipodi:namedview><path
     id="path119527"
     style="color:#000000;fill:#ffffff;stroke-linecap:round;-inkscape-stroke:none;paint-order:stroke markers fill"
     d="M 8 6.5 A 1.5 1.5 0 0 0 6.9394531 6.9394531 A 1.5 1.5 0 0 0 6.9394531 9.0605469 L 10.378906 12.5 L 6.9394531 15.939453 A 1.5 1.5 0 0 0 6.9394531 18.060547 A 1.5 1.5 0 0 0 9.0605469 18.060547 L 12.5 14.621094 L 15.939453 18.060547 A 1.5 1.5 0 0 0 18.060547 18.060547 A 1.5 1.5 0 0 0 18.060547 15.939453 L 14.621094 12.5 L 18.060547 9.0605469 A 1.5 1.5 0 0 0 18.060547 6.9394531 A 1.5 1.5 0 0 0 17 6.5 A 1.5 1.5 0 0 0 15.939453 6.9394531 L 12.5 10.378906 L 9.0605469 6.9394531 A 1.5 1.5 0 0 0 8 6.5 z " /><rect
     style="fill:none;stroke:#ffffff;stroke-width:2;stroke-linecap:round;paint-order:stroke markers fill"
     id="rect124982"
     width="23"
     height="23"
     x="1"
     y="1"
     ry="6" /></svg>
