<svg width="25" height="25" viewBox="0 0 25 25" fill="none" xmlns="http://www.w3.org/2000/svg">
<path d="M12.5 2.5C18.0228 2.5 22.5 6.97715 22.5 12.5C22.5 18.0228 18.0228 22.5 12.5 22.5C6.97715 22.5 2.5 18.0228 2.5 12.5C2.5 6.97715 6.97715 2.5 12.5 2.5ZM12.5 4.5C8.08172 4.5 4.5 8.08172 4.5 12.5C4.5 16.9183 8.08172 20.5 12.5 20.5C16.9183 20.5 20.5 16.9183 20.5 12.5C20.5 8.08172 16.9183 4.5 12.5 4.5ZM16.3329 7.83748C16.5697 7.67128 16.8916 7.69926 17.0962 7.90381C17.3002 8.10784 17.3267 8.42955 17.1587 8.66418C14.979 11.7095 13.7796 13.3417 13.5607 13.5607C12.9749 14.1464 12.0251 14.1464 11.4393 13.5607C10.8536 12.9749 10.8536 12.0251 11.4393 11.4393C11.8126 11.0661 13.4438 9.86549 16.3329 7.83748ZM18 11.5C18.5523 11.5 19 11.9477 19 12.5C19 13.0523 18.5523 13.5 18 13.5C17.4477 13.5 17 13.0523 17 12.5C17 11.9477 17.4477 11.5 18 11.5ZM7 11.5C7.55228 11.5 8 11.9477 8 12.5C8 13.0523 7.55228 13.5 7 13.5C6.44772 13.5 6 13.0523 6 12.5C6 11.9477 6.44772 11.5 7 11.5ZM9.31802 7.90381C9.70854 8.29433 9.70854 8.9275 9.31802 9.31802C8.9275 9.70854 8.29433 9.70854 7.90381 9.31802C7.51328 8.9275 7.51328 8.29433 7.90381 7.90381C8.29433 7.51328 8.9275 7.51328 9.31802 7.90381ZM12.5 6C13.0523 6 13.5 6.44772 13.5 7C13.5 7.55228 13.0523 8 12.5 8C11.9477 8 11.5 7.55228 11.5 7C11.5 6.44772 11.9477 6 12.5 6Z" fill="white"/>
</svg>
