<svg width="24" height="25" viewBox="0 0 24 25" fill="none" xmlns="http://www.w3.org/2000/svg">
<path d="M12.001 2.5C6.47598 2.5 2.00098 6.975 2.00098 12.5C2.00098 16.925 4.86348 20.6625 8.83848 21.9875C9.33848 22.075 9.52598 21.775 9.52598 21.5125C9.52598 21.275 9.51348 20.4875 9.51348 19.65C7.00098 20.1125 6.35098 19.0375 6.15098 18.475C6.03848 18.1875 5.55098 17.3 5.12598 17.0625C4.77598 16.875 4.27598 16.4125 5.11348 16.4C5.90098 16.3875 6.46348 17.125 6.65098 17.425C7.55098 18.9375 8.98848 18.5125 9.56348 18.25C9.65098 17.6 9.91348 17.1625 10.201 16.9125C7.97598 16.6625 5.65098 15.8 5.65098 11.975C5.65098 10.8875 6.03848 9.9875 6.67598 9.2875C6.57598 9.0375 6.22598 8.0125 6.77598 6.6375C6.77598 6.6375 7.61348 6.375 9.52598 7.6625C10.326 7.4375 11.176 7.325 12.026 7.325C12.876 7.325 13.726 7.4375 14.526 7.6625C16.4385 6.3625 17.276 6.6375 17.276 6.6375C17.826 8.0125 17.476 9.0375 17.376 9.2875C18.0135 9.9875 18.401 10.875 18.401 11.975C18.401 15.8125 16.0635 16.6625 13.8385 16.9125C14.201 17.225 14.5135 17.825 14.5135 18.7625C14.5135 20.1 14.501 21.175 14.501 21.5125C14.501 21.775 14.6885 22.0875 15.1885 21.9875C19.259 20.6133 21.9999 16.7963 22.001 12.5C22.001 6.975 17.526 2.5 12.001 2.5Z" fill="white"/>
</svg>
