<svg fill="#FFFFFF" xmlns="http://www.w3.org/2000/svg"  viewBox="0 0 64 64" width="128px" height="128px"><path d="M 28.291016 6 L 26.40625 11.759766 C 23.555212 12.546093 20.947841 13.915585 18.720703 15.736328 L 20.058594 12.828125 L 17.707031 11.548828 C 16.928031 11.125828 15.963891 11.265578 15.337891 11.892578 L 10.992188 16.236328 L 13.738281 21.654297 C 12.333118 24.129074 11.405235 26.910082 11.107422 29.880859 L 10 26.886719 L 7.4335938 27.646484 C 6.5835938 27.897484 6 28.678453 6 29.564453 L 6 35.708984 L 11.759766 37.59375 C 12.546093 40.444788 13.915585 43.052159 15.736328 45.279297 L 12.828125 43.941406 L 11.548828 46.292969 C 11.125828 47.071969 11.265578 48.036109 11.892578 48.662109 L 16.236328 53.007812 L 21.654297 50.261719 C 24.129074 51.666882 26.910082 52.594765 29.880859 52.892578 L 26.886719 54 L 27.646484 56.566406 C 27.897484 57.416406 28.678453 58 29.564453 58 L 35.708984 58 L 37.59375 52.240234 C 40.444788 51.453907 43.052159 50.084415 45.279297 48.263672 L 43.941406 51.171875 L 46.292969 52.451172 C 47.071969 52.874172 48.036109 52.734422 48.662109 52.107422 L 53.007812 47.763672 L 50.261719 42.345703 C 51.666882 39.870926 52.594765 37.089918 52.892578 34.119141 L 54 37.113281 L 56.566406 36.353516 C 57.416406 36.102516 58 35.321547 58 34.435547 L 58 28.291016 L 52.240234 26.40625 C 51.453907 23.555212 50.084415 20.947841 48.263672 18.720703 L 51.171875 20.058594 L 52.451172 17.707031 C 52.874172 16.928031 52.734422 15.963891 52.107422 15.337891 L 47.763672 10.992188 L 42.345703 13.738281 C 39.870926 12.333118 37.089918 11.405235 34.119141 11.107422 L 37.113281 10 L 36.353516 7.4335938 C 36.102516 6.5835938 35.321547 6 34.435547 6 L 28.291016 6 z M 32 16 C 40.837 16 48 23.163 48 32 C 48 40.836 40.837 48 32 48 C 23.163 48 16 40.836 16 32 C 16 23.163 23.163 16 32 16 z M 32 20 C 25.373 20 20 25.373 20 32 C 20 38.627 25.373 44 32 44 C 38.627 44 44 38.627 44 32 C 44 25.373 38.627 20 32 20 z M 32 28 C 34.209 28 36 29.791 36 32 C 36 34.209 34.209 36 32 36 C 29.791 36 28 34.209 28 32 C 28 29.791 29.791 28 32 28 z"/></svg>