<svg width="16" height="16" viewBox="0 0 16 16" fill="none" xmlns="http://www.w3.org/2000/svg">
<g clip-path="url(#clip0_17_2)">
<path d="M8 16C5.87827 16 3.84344 15.1571 2.34315 13.6569C0.842855 12.1566 0 10.1217 0 8C0 5.87827 0.842855 3.84344 2.34315 2.34315C3.84344 0.842855 5.87827 0 8 0C10.1217 0 12.1566 0.842855 13.6569 2.34315C15.1571 3.84344 16 5.87827 16 8C16 10.1217 15.1571 12.1566 13.6569 13.6569C12.1566 15.1571 10.1217 16 8 16ZM8 15C9.85652 15 11.637 14.2625 12.9497 12.9497C14.2625 11.637 15 9.85652 15 8C15 6.14348 14.2625 4.36301 12.9497 3.05025C11.637 1.7375 9.85652 1 8 1C6.14348 1 4.36301 1.7375 3.05025 3.05025C1.7375 4.36301 1 6.14348 1 8C1 9.85652 1.7375 11.637 3.05025 12.9497C4.36301 14.2625 6.14348 15 8 15Z" fill="white"/>
<path d="M8 3.75C7.614 3.75 7.31 3.874 7.086 4.123C6.86605 4.36166 6.74582 4.67547 6.75 5C6.75 5.336 6.862 5.628 7.086 5.877C7.31 6.126 7.614 6.25 8 6.25C8.386 6.25 8.69 6.126 8.914 5.877C9.13394 5.63834 9.25417 5.32453 9.25 5C9.25417 4.67547 9.13394 4.36166 8.914 4.123C8.69 3.874 8.386 3.75 8 3.75ZM7 7V12H9V7H7Z" fill="white"/>
</g>
<defs>
<clipPath id="clip0_17_2">
<rect width="16" height="16" fill="white"/>
</clipPath>
</defs>
</svg>
