<?xml version="1.0" encoding="UTF-8" standalone="no"?>
<svg
   width="25"
   height="25"
   viewBox="0 0 25 25"
   fill="none"
   version="1.1"
   id="svg10691"
   sodipodi:docname="info-settings.svg"
   xml:space="preserve"
   inkscape:version="1.2.2 (b0a8486541, 2022-12-01)"
   xmlns:inkscape="http://www.inkscape.org/namespaces/inkscape"
   xmlns:sodipodi="http://sodipodi.sourceforge.net/DTD/sodipodi-0.dtd"
   xmlns="http://www.w3.org/2000/svg"
   xmlns:svg="http://www.w3.org/2000/svg"><defs
     id="defs10695"><clipPath
       id="clip0_17_2"><rect
         width="16"
         height="16"
         fill="white"
         id="rect11909" /></clipPath></defs><sodipodi:namedview
     id="namedview10693"
     pagecolor="#505050"
     bordercolor="#eeeeee"
     borderopacity="1"
     inkscape:showpageshadow="0"
     inkscape:pageopacity="0"
     inkscape:pagecheckerboard="0"
     inkscape:deskcolor="#505050"
     showgrid="false"
     inkscape:zoom="30.32"
     inkscape:cx="14.198549"
     inkscape:cy="14.42942"
     inkscape:window-width="2560"
     inkscape:window-height="1366"
     inkscape:window-x="0"
     inkscape:window-y="0"
     inkscape:window-maximized="1"
     inkscape:current-layer="svg10691" /><path
     d="M 2.5,12.4998 C 2.5,11.6353 2.6097,10.7964 2.81595,9.99631 3.90622,10.0528 4.98848,9.51015 5.5718,8.49982 6.15467,7.49025 6.08406,6.28271 5.49121,5.36701 6.68354,4.19529 8.16832,3.32022 9.82603,2.86133 10.3222,3.83385 11.3333,4.49982 12.5,4.49982 c 1.1667,0 2.1778,-0.66597 2.674,-1.63849 1.6577,0.45889 3.1425,1.33396 4.3348,2.50568 -0.5929,0.9157 -0.6635,2.12324 -0.0806,3.13281 0.5833,1.01033 1.6656,1.55298 2.7559,1.49649 0.2062,0.80009 0.3159,1.63899 0.3159,2.50349 0,0.8645 -0.1097,1.7034 -0.3159,2.5035 -1.0903,-0.0565 -2.1726,0.4862 -2.7559,1.4965 -0.5829,1.0096 -0.5123,2.2171 0.0806,3.1328 -1.1923,1.1717 -2.6771,2.0468 -4.3348,2.5057 -0.4962,-0.9725 -1.5073,-1.6385 -2.674,-1.6385 -1.1667,0 -2.1778,0.666 -2.67397,1.6385 C 8.16832,21.6794 6.68354,20.8043 5.49121,19.6326 6.08406,18.7169 6.15467,17.5094 5.5718,16.4998 4.98848,15.4895 3.90622,14.9468 2.81595,15.0033 2.6097,14.2032 2.5,13.3643 2.5,12.4998 Z m 4.80385,3 c 0.6301,1.0914 0.81073,2.3461 0.56433,3.5238 0.40779,0.2902 0.84187,0.5416 1.29671,0.7505 0.89691,-0.8029 2.07431,-1.2743 3.33511,-1.2743 1.2608,0 2.4382,0.4714 3.3351,1.2743 0.4548,-0.2089 0.8889,-0.4603 1.2967,-0.7505 -0.2464,-1.1777 -0.0658,-2.4324 0.5644,-3.5238 0.63,-1.0913 1.6263,-1.875 2.7693,-2.2505 C 20.4884,13.0015 20.5,12.7516 20.5,12.4998 20.5,12.2481 20.4884,11.9981 20.4655,11.7504 19.3225,11.3749 18.3262,10.5912 17.6962,9.49982 17.066,8.40845 16.8854,7.15378 17.1318,5.97605 16.724,5.68588 16.2899,5.43447 15.8351,5.22552 14.9382,6.02844 13.7608,6.49982 12.5,6.49982 11.2392,6.49982 10.0618,6.02844 9.16489,5.22552 8.71005,5.43447 8.27597,5.68588 7.86818,5.97605 8.11458,7.15378 7.93395,8.40845 7.30385,9.49982 6.67376,10.5912 5.67754,11.3749 4.53451,11.7504 4.51157,11.9981 4.5,12.2481 4.5,12.4998 c 0,0.2518 0.01157,0.5017 0.03451,0.7495 1.14303,0.3755 2.13925,1.1592 2.76934,2.2505 z"
     fill="#ffffff"
     id="path10689"
     sodipodi:nodetypes="sccccsccccscsccsccccscccsccccsccccsccccscc" /><g
     style="fill:none"
     id="g11923"
     transform="translate(4.5,4.4998)"><g
       clip-path="url(#clip0_17_2)"
       id="g11907"><path
         d="M 8,3.75 C 7.614,3.75 7.31,3.874 7.086,4.123 6.86605,4.36166 6.74582,4.67547 6.75,5 6.75,5.336 6.862,5.628 7.086,5.877 7.31,6.126 7.614,6.25 8,6.25 8.386,6.25 8.69,6.126 8.914,5.877 9.13394,5.63834 9.25417,5.32453 9.25,5 9.25417,4.67547 9.13394,4.36166 8.914,4.123 8.69,3.874 8.386,3.75 8,3.75 Z M 7,7 v 5 H 9 V 7 Z"
         fill="#ffffff"
         id="path11905" /></g></g></svg>
