<svg width="25" height="25" viewBox="0 0 25 25" fill="none" xmlns="http://www.w3.org/2000/svg">
<path d="M10.5 2.5C11.0523 2.5 11.5 2.94772 11.5 3.5V7.5C11.5 8.05228 11.0523 8.5 10.5 8.5H8.5V10.5H13.5V9.5C13.5 8.94772 13.9477 8.5 14.5 8.5H20.5C21.0523 8.5 21.5 8.94772 21.5 9.5V13.5C21.5 14.0523 21.0523 14.5 20.5 14.5H14.5C13.9477 14.5 13.5 14.0523 13.5 13.5V12.5H8.5V18.5H13.5V17.5C13.5 16.9477 13.9477 16.5 14.5 16.5H20.5C21.0523 16.5 21.5 16.9477 21.5 17.5V21.5C21.5 22.0523 21.0523 22.5 20.5 22.5H14.5C13.9477 22.5 13.5 22.0523 13.5 21.5V20.5H7.5C6.94772 20.5 6.5 20.0523 6.5 19.5V8.5H4.5C3.94772 8.5 3.5 8.05228 3.5 7.5V3.5C3.5 2.94772 3.94772 2.5 4.5 2.5H10.5ZM19.5 18.5H15.5V20.5H19.5V18.5ZM19.5 10.5H15.5V12.5H19.5V10.5ZM9.5 4.5H5.5V6.5H9.5V4.5Z" fill="white"/>
</svg>
