<svg width="25" height="25" viewBox="0 0 25 25" fill="none" xmlns="http://www.w3.org/2000/svg">
<path d="M2.5 12.4998C2.5 11.6353 2.6097 10.7964 2.81595 9.99631C3.90622 10.0528 4.98848 9.51015 5.5718 8.49982C6.15467 7.49025 6.08406 6.28271 5.49121 5.36701C6.68354 4.19529 8.16832 3.32022 9.82603 2.86133C10.3222 3.83385 11.3333 4.49982 12.5 4.49982C13.6667 4.49982 14.6778 3.83385 15.174 2.86133C16.8317 3.32022 18.3165 4.19529 19.5088 5.36701C18.9159 6.28271 18.8453 7.49025 19.4282 8.49982C20.0115 9.51015 21.0938 10.0528 22.1841 9.99631C22.3903 10.7964 22.5 11.6353 22.5 12.4998C22.5 13.3643 22.3903 14.2032 22.1841 15.0033C21.0938 14.9468 20.0115 15.4895 19.4282 16.4998C18.8453 17.5094 18.9159 18.7169 19.5088 19.6326C18.3165 20.8043 16.8317 21.6794 15.174 22.1383C14.6778 21.1658 13.6667 20.4998 12.5 20.4998C11.3333 20.4998 10.3222 21.1658 9.82603 22.1383C8.16832 21.6794 6.68354 20.8043 5.49121 19.6326C6.08406 18.7169 6.15467 17.5094 5.5718 16.4998C4.98848 15.4895 3.90622 14.9468 2.81595 15.0033C2.6097 14.2032 2.5 13.3643 2.5 12.4998ZM7.30385 15.4998C7.93395 16.5912 8.11458 17.8459 7.86818 19.0236C8.27597 19.3138 8.71005 19.5652 9.16489 19.7741C10.0618 18.9712 11.2392 18.4998 12.5 18.4998C13.7608 18.4998 14.9382 18.9712 15.8351 19.7741C16.2899 19.5652 16.724 19.3138 17.1318 19.0236C16.8854 17.8459 17.066 16.5912 17.6962 15.4998C18.3262 14.4085 19.3225 13.6248 20.4655 13.2493C20.4884 13.0015 20.5 12.7516 20.5 12.4998C20.5 12.2481 20.4884 11.9981 20.4655 11.7504C19.3225 11.3749 18.3262 10.5912 17.6962 9.49982C17.066 8.40845 16.8854 7.15378 17.1318 5.97605C16.724 5.68588 16.2899 5.43447 15.8351 5.22552C14.9382 6.02844 13.7608 6.49982 12.5 6.49982C11.2392 6.49982 10.0618 6.02844 9.16489 5.22552C8.71005 5.43447 8.27597 5.68588 7.86818 5.97605C8.11458 7.15378 7.93395 8.40845 7.30385 9.49982C6.67376 10.5912 5.67754 11.3749 4.53451 11.7504C4.51157 11.9981 4.5 12.2481 4.5 12.4998C4.5 12.7516 4.51157 13.0015 4.53451 13.2493C5.67754 13.6248 6.67376 14.4085 7.30385 15.4998ZM12.5 15.4998C10.8431 15.4998 9.5 14.1567 9.5 12.4998C9.5 10.843 10.8431 9.49982 12.5 9.49982C14.1569 9.49982 15.5 10.843 15.5 12.4998C15.5 14.1567 14.1569 15.4998 12.5 15.4998ZM12.5 13.4998C13.0523 13.4998 13.5 13.0521 13.5 12.4998C13.5 11.9475 13.0523 11.4998 12.5 11.4998C11.9477 11.4998 11.5 11.9475 11.5 12.4998C11.5 13.0521 11.9477 13.4998 12.5 13.4998Z" fill="white"/>
</svg>
