<?xml version="1.0" encoding="UTF-8"?>
<svg xmlns="http://www.w3.org/2000/svg" viewBox="0 0 703.47 800">
  <defs>
    <style>
      .cls-1, .cls-2 {
        fill: #fff;
        stroke-width: 0px;
      }

      .cls-2 {
        fill-rule: evenodd;
      }
    </style>
  </defs>
  <g id="Layer_1" data-name="Layer 1">
    <g id="Page-1">
      <g id="Icon-Set">
        <path class="cls-1" d="M425,665.26v9.74c0,13.82,11.2,25,25,25s25-11.18,25-25v-9.18c-16.61-.05-33.61,2.2-50-.56Z"/>
        <path class="cls-1" d="M200,700c13.8,0,25-11.18,25-25v-300c0-13.8-11.2-25-25-25s-25,11.2-25,25v300c0,13.82,11.2,25,25,25Z"/>
        <path class="cls-1" d="M567.11,615.63c.33-.58.64-1.15.95-1.73-3.81,3.88-2.19,3.92-.95,1.73Z"/>
        <path class="cls-1" d="M600,100h-150v-50c0-27.6-22.4-50-50-50h-150c-27.6,0-50,22.4-50,50v50H50C22.4,100,0,122.4,0,150v50c0,27.6,22.4,50,50,50v450c0,55.22,44.77,100,100,100h350c55.23,0,100-44.78,100-100v-38.19c-.09.05-.17.1-.25.15-17.05,8.93-36.67,4.93-49.75-7.45v45.5c0,27.6-22.4,50-50,50H150c-27.6,0-50-22.4-50-50V250h450v59.69c14.66-2.94,29.12-2.74,44-2.69,2.07,0,4.08.23,6,.64v-57.64c27.6,0,50-22.4,50-50v-50c0-27.6-22.4-50-50-50ZM250,75c0-13.82,11.2-25,25-25h100c13.8,0,25,11.18,25,25v25h-150v-25ZM575,200H75c-13.8,0-25-11.18-25-25s11.2-25,25-25h500c13.8,0,25,11.2,25,25s-11.2,25-25,25Z"/>
        <path class="cls-1" d="M579.97,384.57c6.67-1.81,12.82-3.28,19.77-4.04.09,0,.17-.01.26-.02v-16.19c-1.97.45-3.98.69-6,.68-9.04-.03-18.08-.42-27.09.33-1.07.2-2.14.4-3.21.63-4.75,1.03-9.4,1.03-13.71.1v28.31c1.36-1.04,2.83-2.03,4.43-2.94,7.99-4.55,16.91-4.53,25.54-6.88Z"/>
        <path class="cls-1" d="M328,643c-.05-5.2-.47-10.35-1.07-15.5-1.88-12.71-4.13-25.42-4.14-38.29-.01-12.56,1.22-25.07-.12-37.6-.17-1.27-.34-2.54-.52-3.81-3.05-22.3-7.31-44.54-8.04-67.07-.71-21.89.79-43.89,1.89-65.74.81-16.26,12.64-28.27,29-29,1.68-.08,3.35.05,5,.33v-11.33c0-13.8-11.2-25-25-25s-25,11.2-25,25v300c0,13.82,11.2,25,25,25s25-11.18,25-25v-3.7c-12.46-3.06-21.87-15.46-22-28.3Z"/>
      </g>
    </g>
  </g>
  <g id="Layer_2" data-name="Layer 2">
    <path class="cls-1" d="M627.18,540.56c12.61,0,22.82-10.06,22.82-22.47s-10.22-22.47-22.82-22.47-22.82,10.06-22.82,22.47,10.22,22.47,22.82,22.47Z"/>
    <path class="cls-2" d="M574.53,280.4c30.64-9.58,62.59,10.34,68.32,42.6l5.94,33.44c21.39,7.18,36.83,27.78,36.83,52.07v50.48c10.95,10.03,17.85,24.61,17.85,40.84v36.53c0,16.23-6.89,30.81-17.85,40.84v50.48c0,30.26-23.97,54.79-53.54,54.79h-285.55c-29.57,0-53.54-24.53-53.54-54.79v-219.16c0-27.16,19.31-49.7,44.64-54.04l236.89-74.07ZM649.93,554.61c9.86,0,17.85-8.18,17.85-18.26v-36.53c0-10.09-7.99-18.26-17.85-18.26h-53.54c-9.86,0-17.85,8.18-17.85,18.26v36.53c0,10.09,7.99,18.26,17.85,18.26h53.54ZM649.93,591.14v36.53c0,10.09-7.99,18.26-17.85,18.26h-285.55c-9.86,0-17.85-8.18-17.85-18.26v-219.16c0-10.09,7.99-18.26,17.85-18.26h285.55c9.82,0,17.78,8.11,17.85,18.14v36.65h-53.54c-29.57,0-53.54,24.53-53.54,54.79v36.53c0,30.26,23.97,54.79,53.54,54.79h53.54ZM608.8,328.28l4.39,25.44h-159.57l132.48-39.76c10.23-3.14,20.85,3.56,22.7,14.32Z"/>
  </g>
</svg>