<?xml version="1.0" encoding="UTF-8" standalone="no" ?>
<!DOCTYPE svg PUBLIC "-//W3C//DTD SVG 1.1//EN" "http://www.w3.org/Graphics/SVG/1.1/DTD/svg11.dtd">
<svg xmlns="http://www.w3.org/2000/svg" xmlns:xlink="http://www.w3.org/1999/xlink" version="1.1" width="800" height="800" viewBox="0 0 800 800" xml:space="preserve">
<desc>Created with Fabric.js 5.2.4</desc>
<defs>
</defs>
<rect x="0" y="0" width="100%" height="100%" fill="transparent"></rect>
<g transform="matrix(1 0 0 1 400 400)" id="8316fda0-2fcd-43da-bb1c-8f1739a8a784"  >
<rect style="stroke: none; stroke-width: 1; stroke-dasharray: none; stroke-linecap: butt; stroke-dashoffset: 0; stroke-linejoin: miter; stroke-miterlimit: 4; fill: rgb(255,255,255); fill-rule: nonzero; opacity: 1; visibility: hidden;" vector-effect="non-scaling-stroke"  x="-400" y="-400" rx="0" ry="0" width="800" height="800" />
</g>
<g transform="matrix(Infinity NaN NaN Infinity 0 0)" id="32d707ca-0ec0-46e7-b059-0d664eba899d"  >
</g>
<g transform="matrix(1 0 0 1 400 400)"  >
<g style="" vector-effect="non-scaling-stroke"   >
		<g transform="matrix(1 0 0 1 98.26 282.63)"  >
<path style="stroke: none; stroke-width: 0; stroke-dasharray: none; stroke-linecap: butt; stroke-dashoffset: 0; stroke-linejoin: miter; stroke-miterlimit: 4; fill: rgb(255,255,255); fill-rule: nonzero; opacity: 1;" vector-effect="non-scaling-stroke"  transform=" translate(-450, -682.63)" d="M 425 665.26 L 425 675 C 425 688.82 436.2 700 450 700 C 463.8 700 475 688.82 475 675 L 475 665.82 C 458.39 665.7700000000001 441.39 668.0200000000001 425 665.2600000000001 Z" stroke-linecap="round" />
</g>
		<g transform="matrix(1 0 0 1 -151.74 125)"  >
<path style="stroke: none; stroke-width: 0; stroke-dasharray: none; stroke-linecap: butt; stroke-dashoffset: 0; stroke-linejoin: miter; stroke-miterlimit: 4; fill: rgb(255,255,255); fill-rule: nonzero; opacity: 1;" vector-effect="non-scaling-stroke"  transform=" translate(-200, -525)" d="M 200 700 C 213.8 700 225 688.82 225 675 L 225 375 C 225 361.2 213.8 350 200 350 C 186.2 350 175 361.2 175 375 L 175 675 C 175 688.82 186.2 700 200 700 Z" stroke-linecap="round" />
</g>
		<g transform="matrix(1 0 0 1 215.14 215.5)"  >
<path style="stroke: none; stroke-width: 0; stroke-dasharray: none; stroke-linecap: butt; stroke-dashoffset: 0; stroke-linejoin: miter; stroke-miterlimit: 4; fill: rgb(255,255,255); fill-rule: nonzero; opacity: 1;" vector-effect="non-scaling-stroke"  transform=" translate(-566.87, -615.5)" d="M 567.11 615.63 C 567.44 615.05 567.75 614.48 568.0600000000001 613.9 C 564.2500000000001 617.78 565.87 617.8199999999999 567.11 615.63 Z" stroke-linecap="round" />
</g>
		<g transform="matrix(1 0 0 1 -26.74 0)"  >
<path style="stroke: none; stroke-width: 0; stroke-dasharray: none; stroke-linecap: butt; stroke-dashoffset: 0; stroke-linejoin: miter; stroke-miterlimit: 4; fill: rgb(255,255,255); fill-rule: nonzero; opacity: 1;" vector-effect="non-scaling-stroke"  transform=" translate(-325, -400)" d="M 600 100 L 450 100 L 450 50 C 450 22.4 427.6 0 400 0 L 250 0 C 222.4 0 200 22.4 200 50 L 200 100 L 50 100 C 22.4 100 0 122.4 0 150 L 0 200 C 0 227.6 22.4 250 50 250 L 50 700 C 50 755.22 94.77000000000001 800 150 800 L 500 800 C 555.23 800 600 755.22 600 700 L 600 661.81 C 599.91 661.8599999999999 599.83 661.91 599.75 661.9599999999999 C 582.7 670.8899999999999 563.08 666.8899999999999 550 654.5099999999999 L 550 700.0099999999999 C 550 727.6099999999999 527.6 750.0099999999999 500 750.0099999999999 L 150 750.0099999999999 C 122.4 750.0099999999999 100 727.6099999999999 100 700.0099999999999 L 100 250 L 550 250 L 550 309.69 C 564.66 306.75 579.12 306.95 594 307 C 596.07 307 598.08 307.23 600 307.64 L 600 250 C 627.6 250 650 227.6 650 200 L 650 150 C 650 122.4 627.6 100 600 100 Z M 250 75 C 250 61.18 261.2 50 275 50 L 375 50 C 388.8 50 400 61.18 400 75 L 400 100 L 250 100 L 250 75 Z M 575 200 L 75 200 C 61.2 200 50 188.82 50 175 C 50 161.18 61.2 150 75 150 L 575 150 C 588.8 150 600 161.2 600 175 C 600 188.8 588.8 200 575 200 Z" stroke-linecap="round" />
</g>
		<g transform="matrix(1 0 0 1 223.26 -20.65)"  >
<path style="stroke: none; stroke-width: 0; stroke-dasharray: none; stroke-linecap: butt; stroke-dashoffset: 0; stroke-linejoin: miter; stroke-miterlimit: 4; fill: rgb(255,255,255); fill-rule: nonzero; opacity: 1;" vector-effect="non-scaling-stroke"  transform=" translate(-574.99, -379.35)" d="M 579.97 384.57 C 586.64 382.76 592.7900000000001 381.29 599.74 380.53 C 599.83 380.53 599.91 380.52 600 380.51 L 600 364.32 C 598.03 364.77 596.02 365.01 594 365 C 584.96 364.97 575.92 364.58 566.91 365.33 C 565.8399999999999 365.53 564.77 365.72999999999996 563.6999999999999 365.96 C 558.9499999999999 366.98999999999995 554.3 366.98999999999995 549.9899999999999 366.06 L 549.9899999999999 394.37 C 551.3499999999999 393.33 552.8199999999999 392.34000000000003 554.4199999999998 391.43 C 562.4099999999999 386.88 571.3299999999998 386.90000000000003 579.9599999999998 384.55 Z" stroke-linecap="round" />
</g>
		<g transform="matrix(1 0 0 1 -26.74 124.99)"  >
<path style="stroke: none; stroke-width: 0; stroke-dasharray: none; stroke-linecap: butt; stroke-dashoffset: 0; stroke-linejoin: miter; stroke-miterlimit: 4; fill: rgb(255,255,255); fill-rule: nonzero; opacity: 1;" vector-effect="non-scaling-stroke"  transform=" translate(-325, -524.99)" d="M 328 643 C 327.95 637.8 327.53 632.65 326.93 627.5 C 325.05 614.79 322.8 602.08 322.79 589.21 C 322.78000000000003 576.6500000000001 324.01000000000005 564.14 322.67 551.61 C 322.5 550.34 322.33000000000004 549.07 322.15000000000003 547.8000000000001 C 319.1 525.5000000000001 314.84000000000003 503.26000000000005 314.11 480.7300000000001 C 313.40000000000003 458.8400000000001 314.90000000000003 436.8400000000001 316 414.99000000000007 C 316.81 398.7300000000001 328.64 386.7200000000001 345 385.99000000000007 C 346.68 385.9100000000001 348.35 386.0400000000001 350 386.32000000000005 L 350 374.99000000000007 C 350 361.19000000000005 338.8 349.99000000000007 325 349.99000000000007 C 311.2 349.99000000000007 300 361.19000000000005 300 374.99000000000007 L 300 674.99 C 300 688.8100000000001 311.2 699.99 325 699.99 C 338.8 699.99 350 688.8100000000001 350 674.99 L 350 671.29 C 337.54 668.23 328.13 655.8299999999999 328 642.99 Z" stroke-linecap="round" />
</g>
		<g transform="matrix(1 0 0 1 275.44 118.09)"  >
<path style="stroke: none; stroke-width: 0; stroke-dasharray: none; stroke-linecap: butt; stroke-dashoffset: 0; stroke-linejoin: miter; stroke-miterlimit: 4; fill: rgb(255,255,255); fill-rule: nonzero; opacity: 1;" vector-effect="non-scaling-stroke"  transform=" translate(-627.18, -518.09)" d="M 627.18 540.56 C 639.79 540.56 650 530.5 650 518.0899999999999 C 650 505.67999999999984 639.78 495.6199999999999 627.18 495.6199999999999 C 614.5799999999999 495.6199999999999 604.3599999999999 505.6799999999999 604.3599999999999 518.0899999999999 C 604.3599999999999 530.5 614.5799999999999 540.56 627.18 540.56 Z" stroke-linecap="round" />
</g>
		<g transform="matrix(1 0 0 1 146.5 80.23)"  >
<path style="stroke: none; stroke-width: 0; stroke-dasharray: none; stroke-linecap: butt; stroke-dashoffset: 0; stroke-linejoin: miter; stroke-miterlimit: 4; fill: rgb(255,255,255); fill-rule: evenodd; opacity: 1;" vector-effect="non-scaling-stroke"  transform=" translate(-498.23, -480.23)" d="M 574.53 280.4 C 605.17 270.82 637.12 290.73999999999995 642.8499999999999 323 L 648.79 356.44 C 670.18 363.62 685.62 384.22 685.62 408.51 L 685.62 458.99 C 696.57 469.02 703.47 483.6 703.47 499.83000000000004 L 703.47 536.36 C 703.47 552.59 696.58 567.17 685.62 577.2 L 685.62 627.6800000000001 C 685.62 657.94 661.65 682.47 632.08 682.47 L 346.53000000000003 682.47 C 316.96000000000004 682.47 292.99 657.94 292.99 627.6800000000001 L 292.99 408.5200000000001 C 292.99 381.36000000000007 312.3 358.8200000000001 337.63 354.4800000000001 L 574.52 280.4100000000001 Z M 649.93 554.61 C 659.79 554.61 667.78 546.4300000000001 667.78 536.35 L 667.78 499.82000000000005 C 667.78 489.7300000000001 659.79 481.56000000000006 649.93 481.56000000000006 L 596.39 481.56000000000006 C 586.53 481.56000000000006 578.54 489.74000000000007 578.54 499.82000000000005 L 578.54 536.35 C 578.54 546.44 586.53 554.61 596.39 554.61 L 649.93 554.61 Z M 649.93 591.14 L 649.93 627.67 C 649.93 637.76 641.9399999999999 645.93 632.0799999999999 645.93 L 346.5299999999999 645.93 C 336.6699999999999 645.93 328.6799999999999 637.75 328.6799999999999 627.67 L 328.6799999999999 408.51 C 328.6799999999999 398.42 336.6699999999999 390.25 346.5299999999999 390.25 L 632.0799999999999 390.25 C 641.9 390.25 649.8599999999999 398.36 649.93 408.39 L 649.93 445.03999999999996 L 596.39 445.03999999999996 C 566.8199999999999 445.03999999999996 542.85 469.56999999999994 542.85 499.83 L 542.85 536.36 C 542.85 566.62 566.82 591.15 596.39 591.15 L 649.93 591.15 Z M 608.8 328.28 L 613.1899999999999 353.71999999999997 L 453.61999999999995 353.71999999999997 L 586.0999999999999 313.96 C 596.3299999999999 310.82 606.9499999999999 317.52 608.8 328.28 Z" stroke-linecap="round" />
</g>
</g>
</g>
</svg>